<mxfile host="app.diagrams.net" modified="2023-11-06T01:43:37.727Z" agent="Mozilla/5.0 (Windows NT 10.0; Win64; x64) AppleWebKit/537.36 (KHTML, like Gecko) Chrome/119.0.0.0 Safari/537.36" etag="ZepY2AS4udFa-o6hZUtW" version="22.0.8" type="github">
  <diagram name="第 1 页" id="N44LDmg78E9LzxW8acmJ">
    <mxGraphModel dx="2390" dy="1317" grid="1" gridSize="10" guides="1" tooltips="1" connect="1" arrows="1" fold="1" page="1" pageScale="1" pageWidth="1920" pageHeight="1200" math="0" shadow="0">
      <root>
        <mxCell id="0" />
        <mxCell id="1" parent="0" />
        <mxCell id="HzaVXlrkofc5pFWWlAzt-1" value="" style="shape=image;verticalLabelPosition=bottom;labelBackgroundColor=default;verticalAlign=top;aspect=fixed;imageAspect=0;image=data:image/png,iVBORw0KGgoAAAANSUhEUgAAB34AAABJCAIAAABdBRBJAAAABGdBTUEAALGPC/xhBQAAAAlwSFlzAAAOxAAADsQBlSsOGwAAHupJREFUeF7t3f9vE0f+x/H7n/q39Bd+6i/95YOK+IlfkE5CqqxTFbUXVQihUlWlRRX6CBVSoQ/cHVxPXK8cDQ6OQ0guNCTUcKTkmhByTYmC5jM7O/tt9otnd8freHk+9Bay12szO/as1y9P1r8TAAAAAAAAAAA4RfQMAAAAAAAAAHCM6BkAAAAAAAAA4BjRMwAAAAAAAADAMaJnAAAAAAAAAIBjRM8AAAAAAAAAAMeIngEAAAAAAAAAjhE9AwAAAAAAAAAcI3oGAAAAAAAAADhG9AwAAAAAAAAAcIzoGQAAAAAAAADgGNEzAAAAAAAAAMAxomcAAAAAAAAAgGNEzwAAABl+e7W/vv7vXn+5f3/l7/+YoyrU2LvuzuzC6qOBfkYBAAAANIvoGQAAwPTbq/3+/ZWl5Uc7O7t6Ecr7+z/mdl7ujbGeb75YWl77/p/zukEAAAAAGkT0DAAAYHq09mRp+ZG+gqrGHj37tbS8xtxnYFwGg8H8/PzsISObJBumm6hMSjttyLewH+4uhH//MdElN0Rujt4wa/TAhZvifz4Wb7/fhpIbIjenLF4DbeqBJosRV23EFSN6BgAAMPX6yy9eMN+5LnkEb6TAY6nnmy/uzC7oNgFo0NLS0vr6+t7enr5+aMgmyYbJ5vlXJ6WdNuYXVh7++PjXX3/T1yec3BC5OXKj9HUL9MDvz5tZUgtKbpQ9XgMt64EmMeL8KjXihiJ6BgAAMPXvlzjiRJ5DEj3Lki3RbQLQlMFgsL6+rq8cSrJ5spGT0k59pdCjtScPf3ysr7SI3CjLeYj0wIWbZoTUmrKciclroK090CRGnCyHc5+JngEAAEwklU4QPQNvsvn5+UM4jzhONk82clLaqa8U+uHuQivnOcqNkpumrxSiB1rzV//pkptmg9dAW3ugSYw4WZYjzgbRMwAAgImk0gmiZ+BNNjs7qy8dYv4plfWVQ8yykS3e11luGj1ghEctKxu8BlrcA01ixMlyhegZAADAxFG7E7IbjQh4XMUTCjRvUiLdSWmnvlSoxfs6y02jB4zkqGVlg9dAi3ugSYw4Wa4QPQMAAJg4andCdqMRAY+reEKB5k1KpDsp7dSXCrV4X2e5afSAkRy1rGzwGmhxDzSJESfLlUai5zVx7qKuW2t6WWmvxOqiyP2l+afixj2x/1pfK7DxMP9BqnkmBi/1xWx7on9HdP2aF/t6KQAAOLw4andCdqMRAY+reEKB5k1KpDsp7dSXCrV4X2e5afSAkRy1rGzwGmhxDzSJESfLlUai527U7nNdvayEPdH9WhzveHc/eV0vM1w7rR6/I05+lp9ub4uv1Pm/0w/SvxqF49l1NSuwfiW6F8WR98WR02JDL8ryVJwMNv/tj4vW3JgPEuqs6qvfNN4fmMsTRbQNAIALHLU7IbvRiIDHVTyhQPMmJdKdlHbqS4VavK+z3DR6QCcPLS0bvAZa3ANNYsTJcsVN9DwkD70StfvUldStsfLTVdNLcW4qeoR0eL1x3ct/9QqdnHT7hZhS4XXmg1wb+pOUWZHxzHS0Ql4m7rGOnoub4f8XcmON5YkqfHwAAGCJo3YnZDcaEfC4iicUaN6kRLqT0k59qVCL93WWm0YPmBFBu8oGr4EW90CTGHGyXHETPQ/JQ60rL8Ddnxfvxla7FJ/XvCqOx24qmFVtJNTXYjF3tejZ+K9nMnNziegZAIBJw1G7E7IbjQh4XMUTCjRvUiLdSWmnvlSoxfs6y02jB8yIoF1lg9dAi3ugSYw4Wa4c3uh5917ilBedD4N1vkgsPxWbEP32h4mbZu7phwrd/ixa2TtLRnBu6HPhhOgPxJnYI3T+GCzPiXSXLwUryPqjGGSebLp89ByfG34m3HAjev5Q3AgnjIfzyomeAQBwgaN2J2Q3GhHwuIonFGjepES6k9JOfalQi/d1lptGD+hkoKVlg9dAi3ugSYw4Wa64iZ6NmNisT6J2H/8kdWus4mFx/Tg7Yw71SzEdpMxHPhbL/s8Droqj4b2+UEsC/QvB8rxIdy92MpCOuPQvvTihfPQcn7sdLjSj5/hDhWfTJnoGAMCFikftcx+99daxy0Vvxj25RmqdzcvveUt9x65s6sVa4lZtuqdvPNxkNxoR8LiKj2FA8yYl0p2UdupLhQ7Fvm7j8rG33vrIdUMsN22sPaDer9+7bLyLu2K5aToZaGnZaPE7/iSMgvZgxMly5fD+zOBIomchdr8XRzpi6nr0s4HxqdAn/k8v9EXRc0fceiZ2t1Xt6Vt93gPKO14UG6/0ElP56Dke0J/8QC80o+f4BO0w3Cd6BgDAhdJH7V7o7CuKnnvT6XXkJ9XYVf9xEsnyaD/KjpTsRiMCHlfxMQxonoNI92BnfWX1+YG+NgoqeR5l9HzwfHVlfaf2Jlg20vW+rtIb0MbmZe/N7iO335FablqdHti8cizzm13vvVstlxdSXw9HvLsP+fq5FstN08mAu+rveVPuzqeWj6VsOBgFw2cSFPAmGRS8TupoYBQgNK4RV6puyBfaZnD1z17OObgX3Vq/XHEXPa9FaalZdrOeb8XP4JyMni+FZ5Ywzi+R9buFp4KbMqNnaeOZviDJ/yU6AfT7YibZhih6jtWZ1Jt+/AEzcK5nAAAmTZmjdvXJPPhQWvRZRU0EUwo+z6hHS3xiVxOlJ2Sas0F2oxEBj6v4GAY0r26ke7CzvtjtLq5v503xcUElz6OMnl9t+1tRM322bKTrfV3l7z7dp2+Wm1anBzY3Lquvf8336CB63ty8om7P7JDoLT7F0ZfHlptmRgQlywuawyQrXJKMnr20a1gYnfdLWP0/m2uWKhv1R4H3LYJ61oIZA5lyjuVqxdZDNDAKYnMphoptZsHrP0X/SUSJ/0iTd1Rf8JRTeUc06hF3Phk/+vr3ommyGdS4i8fN8cv+A96I/Rf1yxV30XNsanO1MiZExzPWvl4WKJxGfS64KS96Du3eTuTORz4zn+PB1ejWsK79rG/NtDFvRuHdm7ETesRP0BxUP9grEz0DAHBIVDtqL4ye9Qd4NRes6DOJehCiZ8dV62MYgEpqRbpB7lx/vnAxlTyPMnqWXGyLZSNd7+uGRM+FwVyOqm9nlptWuweir5NDQfTs896UU6cTyYnaVR7nKoK33DQzIihZpaPn1C9sSdnzLtWaNXMxG05eA/6zlnzqY7xnVh/LVQhDD/0oMOX2QyjWIfEO9HgRc3hYmzl84ip9azWauL+ZERdWxp8X5AyZvOg57/ueOvOgXZmM6LnmrOfBLXOGtT6p9Gtx69PgoaZE3z/1c9xLMXM2EU+//YFYzjy39S19j+L4OLOGRuSe2KTyaHr4S7F8R9y6Ls59I7b0IgAA4EC1o3b1ITz72Df8O9yCdZT05/w3I3pe+9uXZ8+enZnXF7Qrc3qF+cve1Qt/XYvuMjfjLbp8L1pSUM4/hgEYqkaku7N+v7f4YKGbo7ewuPzomZPZ0Cp5dhA9H+w9/2nlwcL8nG5iysKDxd799R29emmWjXS9r0u/JeVIpEtJKn6tf+pny00bxd7ee+Mu6gT1Np2xQt7yiiw3zUgbylblWc/ejMv4QvW3//E5zuYKlcpG3ddALEW1iZ4TRpOBhkY9CqrH6GqYWyraG1TqwGEjtKImRtw9sbvmXfDGVCplzhsymdFz5qisX664i55/MSPgqAqT4rBWf9GP5Bsyvdeiwkg3fd6MKO19La6d9k7lfC3vCwJpLzjLc3Ci54y2XVBrVo6eX8f+i6wa/Cla/7x8daqFGzejhV8tRivvj/JP0gAAeBNUO2rPjZXVEXk0gyb/qDrj1th9J47sRiMCzq0ocTbi5uBqmE37V+9dkde+/PaJvjqsKn8MA1BZnUh398mDXnfuwWB758VOup4/XVu535u9O7f4eKvmrGiVPNeMnnefrfS7d2d791fWnj43murX9uDBXLf34EnRH1IXs2xknX1dqdQp9a6UP5mxIJUuw3LTRrG3V8HWMbN3/KhLJ24ZG1j8dl+B5aaFEUG1qhw9y9X8EE1XasJmPC+rXDZqvga8gRDEzd6TWCJ6Vl/VjHKuwLhGQW4/FKpwL6/zS4fI+TufepoZcQP5FqJixvS5aMwxFVRG9KyGm/cI4YXkXSqXK2/EzwwWRM/9q+LcV+LU2WhOcUHpudKZbasZPcfPB1277DsZAABkqnbUnvM5MzFrLGsdNTHKlz5GT00kGcXh9YjIbjQi4NzS0XNiXrMRN699eyFY4clf5Q1f/m0tXHNYOf8YBmCompHu7pMHc3d7Dzdzs+WDrbWF7mzvYa2fIVTJc512Hjxf6c12F9byM/CDzYe9u3N1cmfJspF19nVZoU/mrGdvYfoLUfnulvktabXQKs1y06r3QDIiV2/WCZlvvunVitTrB8tNM8KBslUxek4HXnJJch35OPV/AM1GvXd8dUgWPFO5r97M6DmYsVv8qqgzmWDko0CxfVWHewZvw8uJOsHuvvFOq/clWQnNjLj0bwN64yuH/11OOnqW/+rZ0/JxgtwyM7YuW664iJ5rn2ojXmFs6vCEGwXRc6mkOLzX1rfi6IdevdMJbg2i5ww2PzNI9AwAwGFS7ahdHaybH0WMhZnrhPTxdP6nU//zQJ0j6SbJbjQi4NwyJjXrMiJmNQ/6y7/NRRm0bdX8GAaggnqRrkelz/3VbX01w+76Qrf3sMYeUSXP1dt58PRBd7a/VpAqb6/2a+fOkmUj6+zrakbP2bOb1benTr4xtdy0yj2wubGpE7fUW7B6ay6auO3dMXkvmyVlWW6aEQ6UrWrRc/peQ8+/Ua1s1B0FsdeAfklkM47lEpl1hvwJ8vZGPQp8Nq/erN2Fyeo1n7nfSDB3OIn/2rx7fAZ0zp7KWjMjTpYxWOLJclQqUM6LnvU6yfJuyjpVdKlyZTKiZ1c/M5i+qVr0HIruXjN63hYzqUnWur6K/UphUCc+Ta0Wq+hk0AAAoJJqR+3qI0rio4j/GSb+qTu9jiF9lyQVBBQ+wuEhu9GIgHOrIHqOTsGhz7Mh2Z9qw6+aH8MAVFAn0g3t7gz5cb7tH3vdB0/1lfJU8ly5nTur87O9HwuicelgZ6du7ixZNrLOvi4rS1LvOJbRswp9jOU2+ZQly02ru7f3kqzUO2zOxMzwndomqrOK4QpZbpoRHZQtL0S2EUvKvOAsTt3kLYwnYrHgrE7ZqPEaCP4KLXimEs9aPOVMzXpWR3d5B2/+kVvdF4DUzCjwt2U4c2gHvVfI7KJU9JwaKeYOpzXRsx8NGwb3EmnyIJwQ7WgElS1XJiN67hjp6ifRTcc/Sd50URwPbrKJnr0Tbsh7XRDv/kFMJx/Hr84f9V28e/1F3yvkLHrO9Mp7kU19GNz3fW+etb7cEScviuXHekUAAOBWtaN2dbAe/yhSfBSeEx+reTEFx8rDsulDRHajEQHnlmX0rM/LQfQMTIAakW4ZvzzsdZef6SulqeS5ajsP1hdmew+TP1k0IpaNrLOvqx09p2Igd1OeJctNc7S3VxueVPC+nArLrJaUZblpYXrgqobMelbTmSU/IAvnb2bGar46c59tVH4NeENgupf7TKVC0oh3kyfr1a5fS04GQjOjwObVm7W7iMe+mbJWcBA9m4L/In9PZaexESeHmH9yDD9otoqeg7NqFEkO22rlysjO9fxSXDptNlrWO1/oHVNoa1ac6GRMXnZ4rudQ5oTo3XmvAZnry62YDk+p0RG3X+rFIWfRs/olw9V73glDbl33ovATU+JIeC9Vp656Xbd6Nbm8I46e8SLyG+pkI8uP1S8NWn5RCQAAclQ7avcOl4fNRx6+DtFzVPoMG8EJN/T5N/46I5dywg3gsKse6Zbz0+Ls4k/6cmkqea7azs2VuRr/dSmWjayzr3MQPSfW92KmOrmPwXLTau/tZbPT79HJyEy+TSf7xCaqSy8py3LToqzAUaWj53jdUCeZDQMy8zwbRqm87NBGz71pLwPNfabyomd92HZZvUjUEBjKHFO2mhkFNq/evOh5qBFEz/G7x4dqwZ7KSmMjTkfPwUlpjOhZj5es6LlgEvSQkWhdrowmel4TU1Ox5k6Jmf+Nrp4J3zRfiRufBkFqR1xL/plUE9Hzz2JrT5z7ILpLIgF/La7F0vPOt3pxnKvoef/7YIV0dcTJC6If/x7/mZj53Aym4zX9vV4RAABUU+2o3Ttcrh09D0uW/U81WR9+Dh/ZjUYEnFt6OvOVaIKzLHV6jXCCc/Qzg9k5dVHV/BgGoILqkW4p3tTjMUXPvzzszS6s1/mVQ2uWjayzr/PffSzlBzoqfpq+7L1V1UtaDZabVndv7yVZ6fdo9c7rb47KGd9676NebB31zm6hXodYbpoRDpSrrGg4I3pO/TBaqei5zkkDbNR8Dejo03+ih1KzpNVwSH4/EakbgMY1MwpsX89Z0XP+4auUtUJW9JzsLrMD2xo9J/5iwI+e42dIHxY9yzEY/13B9kfPg5viaDhTWNaU6L/0tvlcGEZ3xMya2Lij5xqHdeSs2NKP4dm9lzjxRaIKT7gR1ox6MuIS0fPAy8dvbYvdrng3WC7bdulfeuX4jxMeOZ0dGWdEz69Ef1Ff1GxmPQ/EiXCdoE5+LmZui42f1UTmcC6zmh8ta+upuH1FnIqdDySsaz+rNQEAQFXVjtrVwXq56Nk7gI5/FvWOoROfTo0V/M8DhUf2h4jsRiMCzq3gTBrRHGd/iXE1iJtVDH328r3g7sOq5scwABVUj3TLOHjyoDu/uqOvlaaS58rtfLbc7T540kT2bNnIOvu6RKCjqcg1a2FRoOO/kbl+q7LctJp7e+9N1txej985PflvVuzu3WtYrGyzTjHLTTPCgXLlKHq+If9NC5ZPRvScJBd+NC1f2MeOvZf33X+7oudkD6SXZO0uvB4Yalj0nO7GNyV6Dq9G0XM8XyZ6jjwT58MoNqhw6nEi4TWqI87cFLuv9ZrDFf7MYIEwej5xUUyrKPy8iok3rscmEcvGfCe6F2NL/PQ8ixE9+ycPOfqNui1kd67n1TviTOy0zunye3LIZPAPvTNvxBN8AABQQbWjdu/QvPysZ+8YOmLePXmrlPeZ5zCS3WhEwLkVJMt+pqyF85p1MH0lNidanYvD+rQbNT+GAaigRqRrb3etP7uwXv2Egyp5rt7On/81N9tf29XXRsiyka73dV52kxnF5lK587Erm+rNrm7YGme5afV6ID+r0nl69BYcz7/SwdwoWG6aGRGUKkfRc17g5d06gdGzXOK9KvyUM3W6lUB7ouc0u1d4Xg+EslZIZsfhQW+sx8wOTEXPptZEz/EzbwyJntVVKRyVLY2e95JZbaziZ71IJLx+dcTUdbH1Sq/gK5rv7JfdrGe/4nOfw+g5rPCXA+NznBPVEdfkfjRHFD1/Kq6FJw8xTr5h/TOD0aNllVX0XPj4AADAkvOj9jeT7EYjAs6t5KRm58UTCjSvTqRr5+D5Sm+2t/K8xrRjlTzXaOevPy12azbBimUjXe/rykTPqXA2PGWBk9zNctNq9YBqcCo7U52gRVsXD+Oso+daWZjlppkRQalqIHquF4fZqDkKks+mevb9q2FIKi9kDIq2RM9ZYW6e5HZ5PTBUUTatBqD3mEEbMvstFT3H9jmJZ6Fuzzcx4lQZ0bMuNcp8Gd/WJKNnL7PcjIahrHCsJfLr8uWKg+h58CfxTvLUGW93oog5Hj1L3S9iq70vjnwsuqlgt/5ZnuMVb0A6en73a32TeC1uf27eKmv6jr49U3ZYbOS/5aPnk19E0XknOKWGET2/czpa59wX4h2LxwcAAJZqfm6BT3ajEQHnFtEz0Dq1It1hDnZ+Xr3fnZ178KTelGOVPNdq58Hmar87272/+vPOCPNny0a63tep3G1Y9OxFdVLeauE5cy0j7ByWm1anB9SMy/zo3L+qtyKRaiWysALZ0bYty03z44KKVSN6juSHy95D1UjBZNmoOQqi6FkFoFF2GU851U3Jp7It0XMWuy9X8nogVLSCP9850VHBADTu8kZEz2ok+gu97Dh5Mo1E+Qm1GnTx6Dms7FzbulxxMeu5m5jLfGRadJ+ZP+i3/1jcuCpOTXlrvvuhOff5ndPi2j2xH5xwY1TR87boJG86cSn4GuGl6H4tjhsBul8d0flaLKfycV9m9Dz1F7Gvb1fKR8/xX1wMp2Mb0XM8Uo/+C6JnAABccH7U/maS3WhEwLlF9Ay0Ts1IN8/War/bnZ29O7ew8rR+2KuS59rtfPWf9cWe90Ddbn91JKc/tGyk633dkOjZD53twh31UJLV7OAMlptWowdiG6uCxYwN95dr8RNkeYGXlaqbL1lumh8XVKzYn4wPZTnr2VsSY+TaZctGzVHgx6wqCU2eA81MOdULJnpCjVw1/pKI36uWUY8C/TVSKeqHFkuLBlfQUXn7GR1AR8+FH1JbmojoWQ6feDrsp4+JEDmWL4cL/UhaCsdUZsqcmUfblysuoufX4pwf2qqzZ3inbN4T00FDj/xBvJuMdM91xcZ3yZ8i9Ksjjp4RM/OjOuHG7veJyPuUbOoLsXxTTJ82o/Ds6ohTn4lr34nV8Ef8wg0Pyo/dTeWj50tLwU8LbotbwVxsI3o+8U20zu5S8CuFRM8AALhQ83MLfLIbjQg4t4iegdZxEOlmOdjb3Xnx38Rcnxq8vNhZO/f/+2Jnd28kc58tG+l6Xzckem6S5abV6AEvAhseVAUzMeuEyNVYbpofF4y2UrOeGysbNUdB7gxfM3oeg9GPguYECbL5GyfZvM7XayZmPRfxdl+HOXqOfyvjnzrDX5I3Sdn/o4HwXhkDMPOro9H/nYENN+d67l8QJy6I1W19desvZnPjpX8YcDt2cuSgjpwWGzY/NljtZwYHUQQ89a24nTz1R7xOXBQzn+fm0eGU5P3kdO8TX+f8UiLnegYAYNJMxFH74Se70YiAx1U8oUDz3EW6I6SS58lop75UqMX7OstNowfMiKBdZYPXQIt7oEmMOFmuOPqZQSNyXQhOPZysIx+IzgXR/0WvJe2uifPhpOPCH/RLqBY9q9xW/l9T36orL8V0aub18c9FP5y2/Ex89YkZQB//Rt/o02fD6Iiv5vWSDETPAABMGo7anZDdaETA4yqeUKB5kxLpTko79aVCLd7XWW4aPWBGBO0qG7wGWtwDTWLEyXLFUfSccuOMbuiRP3hx841Fsbunb8rwi7j1tTjznb42XNXoWbwW3dhb9tbN4HHUCZ1XY5l45BfRvS5OfaBXu/1SL9Zei/Mfi9vhKTgylY+ez9wU3Tu6Lp3VC43o+eiFaJ3uTXHU4vEBAIAljtqdkN1oRMDjKp5QoHmTEulOSjv1pUIt3tdZbho94McFbS0bvAZa3ANNYsTJcmVU0bNYFOevi9URnRRqLTqV863kSevLeS1uXxfLj/W1IV6K5Yf6YjnbYiY89/TV4IcNs2zM6yh5IxbTbz3UC/tqSvj+IHFV2xN9P4OeT/7CIQAAqISjdidkNxoR8LiKJxRo3qREupPSTn2pUIv3dZabRg8YyVHLygavgRb3QJMYcbJcGVn0DAAAMLE4andCdqMRAY+reEKB5k1KpDsp7dSXCrV4X2e5afSAkRy1rGzwGmhxDzSJESfLFaJnAAAAU//+ir6EGuRRuxEBj6v4GAY0b1Ii3Ulpp75UqMX7OstNoweM5KhlZYPXQIt7oEmMOFmuED0DAACYev3lFy8KzpIFK/Ko3YiAx1LPN1/cmV3QbQLQlEmJdCelnfpSIUI3esBIjlpWNngNtLgHmsSIk+UK0TMAAIBpff3fS8uP9BVUJY/ajRR4LLW0vLb6KP4rGQCaMCmR7qS0U18qROhGDxjJUcvKBq+BFvdAkxhxslwhegYAADD99mq/f39lafnRzg5zn6uTR+1GCtxwPd98sbS89v0/53WDADRofn5+by/2++mHj2yebOSktFNfKfTD3YVff/1NX2kRuVFy0/SVQvTA/3xshketKblpNngNtLUHmsSIk2U54mwQPQMAAGT47dX+o7Unvf5y//7K3/8xR1WosXfdndkF5jsD4zIYDNbX1/WVQ0k2TzZyUtqprxSSb1sPf3ysr7SI3Ci5afpKIXrgwk0zP2pNyU2zwWugrT3QJEacLMsRZ4PoGQAAAADg3tLS0vr6+iGcUyybJBsmm+dfnZR22phfWHn44+PWzHmUGyI3R26Uvm6BHvj9eTNCakHJjbLHa6BlPdAkRpxfpUbcUETPAAAAAICRGAwG8/Pz/imVDw/ZJGMe8aS008ajtSc/3F0w/gpkQktuiOXcwzh64MLN9pwHQG5IhdmXvAba1ANNFiOu2ogrRvQMAAAAAAAAAHCM6BkAAAAAAAAA4BjRMwAAAAAAAADAMaJnAAAAAAAAAIBjRM8AAAAAAAAAAMeIngEAAAAAAAAAjhE9AwAAAAAAAAAcI3oGAAAAAAAAADhG9AwAAAAAAAAAcIzoGQAAAAAAAADgGNEzAAAAAAAAAMAxomcAAAAAAAAAgGNEzwAAAAAAAAAAx4ieAQAAAAAAAACOET0DAAAAAAAAABz73X+2XlIURVEURVEURVEURVEURVGUs9p6+f/VfUKnNkEa7QAAAABJRU5ErkJggg==;" vertex="1" parent="1">
          <mxGeometry y="240" width="1918" height="73" as="geometry" />
        </mxCell>
        <mxCell id="HzaVXlrkofc5pFWWlAzt-2" value="" style="rounded=0;whiteSpace=wrap;html=1;fillColor=#dae8fc;strokeColor=#6c8ebf;opacity=20;" vertex="1" parent="1">
          <mxGeometry y="240" width="580" height="70" as="geometry" />
        </mxCell>
        <mxCell id="HzaVXlrkofc5pFWWlAzt-3" value="" style="rounded=0;whiteSpace=wrap;html=1;fillColor=#fff2cc;strokeColor=#d6b656;opacity=20;" vertex="1" parent="1">
          <mxGeometry x="580" y="240" width="580" height="70" as="geometry" />
        </mxCell>
        <mxCell id="HzaVXlrkofc5pFWWlAzt-4" value="" style="rounded=0;whiteSpace=wrap;html=1;fillColor=#d5e8d4;strokeColor=#82b366;opacity=20;" vertex="1" parent="1">
          <mxGeometry x="1160" y="240" width="760" height="70" as="geometry" />
        </mxCell>
        <mxCell id="HzaVXlrkofc5pFWWlAzt-5" value="1" style="ellipse;whiteSpace=wrap;html=1;aspect=fixed;strokeColor=none;fillColor=#FF3333;fontColor=#FFFFFF;" vertex="1" parent="1">
          <mxGeometry x="180" y="255" width="40" height="40" as="geometry" />
        </mxCell>
        <mxCell id="HzaVXlrkofc5pFWWlAzt-6" value="2" style="ellipse;whiteSpace=wrap;html=1;aspect=fixed;fontColor=#FFFFFF;strokeColor=none;fillColor=#FF3333;" vertex="1" parent="1">
          <mxGeometry x="720" y="255" width="40" height="40" as="geometry" />
        </mxCell>
        <mxCell id="HzaVXlrkofc5pFWWlAzt-7" value="3" style="ellipse;whiteSpace=wrap;html=1;aspect=fixed;strokeColor=none;fillColor=#FF3333;fontColor=#FFFFFF;" vertex="1" parent="1">
          <mxGeometry x="1180" y="255" width="40" height="40" as="geometry" />
        </mxCell>
        <mxCell id="HzaVXlrkofc5pFWWlAzt-9" value="" style="shape=crossbar;whiteSpace=wrap;html=1;rounded=1;direction=south;strokeWidth=2;strokeColor=#808080;" vertex="1" parent="1">
          <mxGeometry x="1276" y="313" width="20" height="47" as="geometry" />
        </mxCell>
        <mxCell id="HzaVXlrkofc5pFWWlAzt-10" value="" style="shape=crossbar;whiteSpace=wrap;html=1;rounded=1;direction=south;strokeWidth=2;strokeColor=#808080;" vertex="1" parent="1">
          <mxGeometry x="1470" y="310" width="20" height="47" as="geometry" />
        </mxCell>
        <mxCell id="HzaVXlrkofc5pFWWlAzt-11" value="" style="shape=crossbar;whiteSpace=wrap;html=1;rounded=1;direction=south;strokeWidth=2;strokeColor=#808080;" vertex="1" parent="1">
          <mxGeometry x="1640" y="313" width="20" height="47" as="geometry" />
        </mxCell>
        <mxCell id="HzaVXlrkofc5pFWWlAzt-12" value="" style="shape=crossbar;whiteSpace=wrap;html=1;rounded=1;direction=south;strokeWidth=2;strokeColor=#808080;" vertex="1" parent="1">
          <mxGeometry x="1847" y="312" width="21" height="47" as="geometry" />
        </mxCell>
        <mxCell id="HzaVXlrkofc5pFWWlAzt-16" value="" style="shape=crossbar;whiteSpace=wrap;html=1;rounded=1;direction=south;strokeWidth=2;strokeColor=#808080;" vertex="1" parent="1">
          <mxGeometry x="1381" y="193" width="20" height="47" as="geometry" />
        </mxCell>
        <mxCell id="HzaVXlrkofc5pFWWlAzt-17" value="" style="shape=crossbar;whiteSpace=wrap;html=1;rounded=1;direction=south;strokeWidth=2;strokeColor=#808080;" vertex="1" parent="1">
          <mxGeometry x="1551" y="193" width="20" height="47" as="geometry" />
        </mxCell>
        <mxCell id="HzaVXlrkofc5pFWWlAzt-19" value="" style="shape=crossbar;whiteSpace=wrap;html=1;rounded=1;direction=south;strokeWidth=2;strokeColor=#808080;" vertex="1" parent="1">
          <mxGeometry x="1744" y="194" width="20" height="47" as="geometry" />
        </mxCell>
        <mxCell id="HzaVXlrkofc5pFWWlAzt-20" value="国际化" style="text;html=1;strokeColor=none;fillColor=none;align=center;verticalAlign=middle;whiteSpace=wrap;rounded=0;fontStyle=1;fontSize=14;fontColor=#333333;" vertex="1" parent="1">
          <mxGeometry x="1346.5" y="163" width="89" height="30" as="geometry" />
        </mxCell>
        <mxCell id="HzaVXlrkofc5pFWWlAzt-22" value="撤销/重做" style="text;html=1;strokeColor=none;fillColor=none;align=center;verticalAlign=middle;whiteSpace=wrap;rounded=0;fontStyle=1;fontSize=14;fontColor=#333333;" vertex="1" parent="1">
          <mxGeometry x="1241.5" y="360" width="89" height="30" as="geometry" />
        </mxCell>
        <mxCell id="HzaVXlrkofc5pFWWlAzt-23" value="主题" style="text;html=1;strokeColor=none;fillColor=none;align=center;verticalAlign=middle;whiteSpace=wrap;rounded=0;fontStyle=1;fontSize=14;fontColor=#333333;" vertex="1" parent="1">
          <mxGeometry x="1435.5" y="360" width="89" height="30" as="geometry" />
        </mxCell>
        <mxCell id="HzaVXlrkofc5pFWWlAzt-24" value="保存" style="text;html=1;strokeColor=none;fillColor=none;align=center;verticalAlign=middle;whiteSpace=wrap;rounded=0;fontStyle=1;fontSize=14;fontColor=#333333;" vertex="1" parent="1">
          <mxGeometry x="1605.5" y="360" width="89" height="30" as="geometry" />
        </mxCell>
        <mxCell id="HzaVXlrkofc5pFWWlAzt-25" value="预览" style="text;html=1;strokeColor=none;fillColor=none;align=center;verticalAlign=middle;whiteSpace=wrap;rounded=0;fontStyle=1;fontSize=14;fontColor=#333333;" vertex="1" parent="1">
          <mxGeometry x="1813" y="360" width="89" height="30" as="geometry" />
        </mxCell>
        <mxCell id="HzaVXlrkofc5pFWWlAzt-26" value="出码" style="text;html=1;strokeColor=none;fillColor=none;align=center;verticalAlign=middle;whiteSpace=wrap;rounded=0;fontStyle=1;fontSize=14;fontColor=#333333;" vertex="1" parent="1">
          <mxGeometry x="1516.5" y="163" width="89" height="30" as="geometry" />
        </mxCell>
        <mxCell id="HzaVXlrkofc5pFWWlAzt-27" value="重置" style="text;html=1;strokeColor=none;fillColor=none;align=center;verticalAlign=middle;whiteSpace=wrap;rounded=0;fontStyle=1;fontSize=14;fontColor=#333333;" vertex="1" parent="1">
          <mxGeometry x="1709.5" y="163" width="89" height="30" as="geometry" />
        </mxCell>
      </root>
    </mxGraphModel>
  </diagram>
</mxfile>
